<svg viewBox="0 0 20 18" xmlns="http://www.w3.org/2000/svg">
  <g className="light">
    <path d="M20 9c0-1.34-1.66-2.6-4.2-3.4.58-2.61.32-4.7-.83-5.37a1.77 1.77 0 0 0-.91-.23v.92c.19 0 .34.04.47.11.55.32.79 1.54.6 3.12-.04.39-.12.8-.2 1.21-.8-.2-1.68-.35-2.6-.45a20.05 20.05 0 0 0-1.69-2.06C11.97 1.6 13.22.92 14.06.92V0C12.94 0 11.48.8 10 2.2 8.51.83 7.04.03 5.92.03v.92c.84 0 2.1.68 3.42 1.92-.57.6-1.14 1.29-1.68 2.05-.92.1-1.8.25-2.6.45-.09-.4-.16-.8-.2-1.2-.2-1.56.04-2.79.59-3.11a.9.9 0 0 1 .47-.11V.02c-.34 0-.65.07-.92.23C3.85.92 3.6 3 4.19 5.61 1.65 6.41 0 7.67 0 9.01c0 1.33 1.66 2.6 4.2 3.39-.58 2.62-.32 4.7.83 5.37.26.16.57.23.91.23 1.12 0 2.6-.8 4.08-2.2 1.48 1.38 2.95 2.18 4.07 2.18.34 0 .65-.07.92-.23 1.15-.66 1.4-2.75.81-5.36C18.35 11.61 20 10.34 20 9zm-5.3-2.75a18.7 18.7 0 0 1-.56 1.63 19.56 19.56 0 0 0-1.12-1.95c.58.09 1.14.2 1.67.32zm-1.87 4.4c-.32.55-.65 1.08-.99 1.57a20.99 20.99 0 0 1-3.67 0 22.74 22.74 0 0 1-1.84-3.2A21.57 21.57 0 0 1 8.16 5.8a20.99 20.99 0 0 1 3.67 0A22.74 22.74 0 0 1 13.67 9c-.26.55-.54 1.1-.84 1.64zm1.31-.54c.22.55.41 1.1.56 1.64-.53.13-1.1.24-1.68.33a22.8 22.8 0 0 0 1.12-1.97zm-4.13 4.4c-.38-.4-.76-.84-1.14-1.33a24.97 24.97 0 0 0 2.26 0c-.37.49-.75.93-1.12 1.32zm-3.03-2.43c-.58-.1-1.14-.2-1.68-.33.15-.53.34-1.08.55-1.63a19.56 19.56 0 0 0 1.13 1.96zm3-8.58c.39.4.77.84 1.14 1.32a24.97 24.97 0 0 0-2.25 0c.36-.48.74-.92 1.12-1.32zm-3 2.43a22.8 22.8 0 0 0-1.13 1.96c-.22-.55-.4-1.1-.56-1.64.54-.12 1.1-.23 1.68-.32zm-3.7 5.16C1.84 10.46.91 9.65.91 9c0-.64.93-1.46 2.37-2.08.35-.16.74-.3 1.13-.42.23.8.54 1.65.92 2.51-.38.86-.68 1.7-.9 2.5-.41-.13-.8-.27-1.15-.42zm2.2 5.88c-.56-.32-.8-1.54-.61-3.11.04-.4.12-.8.2-1.22.8.2 1.68.35 2.6.45.54.77 1.12 1.46 1.69 2.06-1.33 1.25-2.58 1.94-3.42 1.94a.96.96 0 0 1-.47-.12zm9.66-3.14c.2 1.58-.04 2.8-.59 3.13a.9.9 0 0 1-.47.1c-.84 0-2.1-.68-3.42-1.92.57-.6 1.14-1.29 1.68-2.05.92-.1 1.8-.25 2.6-.45.09.41.16.81.2 1.2zm1.57-2.74c-.35.15-.73.29-1.13.41-.23-.8-.53-1.65-.91-2.5.37-.86.67-1.7.9-2.5.4.12.79.26 1.15.42 1.44.62 2.37 1.44 2.37 2.08 0 .65-.93 1.47-2.38 2.09z" />
    <circle cx="10" cy="9" r="2" />
  </g>
</svg>
