<svg viewBox="0 0 64 64" xmlns="http://www.w3.org/2000/svg">
  <path
    className="light"
    d="M0 32v32h64V0H0zm51.58-2.55a7.97 7.97 0 0 1 4 2.3c.59.64 1.46 1.78 1.53 2.06.02.08-2.76 1.95-4.45 3-.06.03-.3-.23-.58-.64-.82-1.2-1.68-1.71-3-1.8-1.94-.14-3.2.88-3.18 2.58 0 .5.07.79.27 1.2.43.88 1.22 1.4 3.7 2.49 4.6 1.97 6.55 3.27 7.77 5.12a9.3 9.3 0 0 1 .74 7.8c-1.02 2.66-3.53 4.47-7.08 5.07-1.1.2-3.7.16-4.88-.05-2.57-.46-5-1.73-6.5-3.4-.6-.64-1.74-2.34-1.67-2.46.03-.04.3-.2.59-.38l2.37-1.37 1.84-1.07.39.57a8.59 8.59 0 0 0 2.43 2.33c2.04 1.08 4.84.92 6.23-.32.59-.53.83-1.1.83-1.92 0-.74-.1-1.06-.48-1.62-.5-.71-1.51-1.31-4.4-2.56-3.3-1.42-4.72-2.3-6.02-3.7a8.44 8.44 0 0 1-1.76-3.2c-.24-.91-.3-3.18-.11-4.1.68-3.2 3.09-5.4 6.56-6.07 1.13-.21 3.75-.13 4.86.14zm-15.03 2.67.02 2.62h-8.33v23.67h-5.89V34.74h-8.33v-2.57l.07-2.64c.03-.04 5.1-.06 11.25-.05l11.18.03z"
  />
</svg>
